<?xml version="1.0" encoding="UTF-8" standalone="no"?>
<!-- Created with Inkscape (http://www.inkscape.org/) -->

<svg
   xmlns:dc="http://purl.org/dc/elements/1.1/"
   xmlns:cc="http://creativecommons.org/ns#"
   xmlns:rdf="http://www.w3.org/1999/02/22-rdf-syntax-ns#"
   xmlns:svg="http://www.w3.org/2000/svg"
   xmlns="http://www.w3.org/2000/svg"
   xmlns:xlink="http://www.w3.org/1999/xlink"
   version="1.1"
   width="10%"
   height="10%"
   viewBox="-25 150 300 300"
   preserveAspectRatio="x200Y200 meet"
   id="svg6425">
  <defs
     id="defs6427">
    <linearGradient
       x1="6609.2427"
       y1="-3055.6562"
       x2="6688.375"
       y2="-3110.1562"
       id="linearGradient14429"
       xlink:href="#linearGradient14333"
       gradientUnits="userSpaceOnUse" />
    <linearGradient
       id="linearGradient14333">
      <stop
         id="stop14335"
         style="stop-color:#0f5287;stop-opacity:1"
         offset="0" />
      <stop
         id="stop14337"
         style="stop-color:#0299cc;stop-opacity:1"
         offset="1" />
    </linearGradient>
    <linearGradient
       x1="6620.4536"
       y1="-3047.0229"
       x2="6746.875"
       y2="-3064.5229"
       id="linearGradient14431"
       xlink:href="#linearGradient14079-7"
       gradientUnits="userSpaceOnUse" />
    <linearGradient
       id="linearGradient14079-7">
      <stop
         id="stop14081-9"
         style="stop-color:#09304f;stop-opacity:1"
         offset="0" />
      <stop
         id="stop14083-1"
         style="stop-color:#0e6ea4;stop-opacity:1"
         offset="1" />
    </linearGradient>
    <linearGradient
       x1="6609.2427"
       y1="-3055.6562"
       x2="6688.375"
       y2="-3110.1562"
       id="linearGradient14433"
       xlink:href="#linearGradient14333"
       gradientUnits="userSpaceOnUse" />
    <linearGradient
       x1="6620.4536"
       y1="-3047.0229"
       x2="6746.875"
       y2="-3064.5229"
       id="linearGradient14435"
       xlink:href="#linearGradient14079-7"
       gradientUnits="userSpaceOnUse" />
    <linearGradient
       x1="6609.2427"
       y1="-3055.6562"
       x2="6688.375"
       y2="-3110.1562"
       id="linearGradient14437"
       xlink:href="#linearGradient14333"
       gradientUnits="userSpaceOnUse" />
    <linearGradient
       x1="6620.4536"
       y1="-3047.0229"
       x2="6746.875"
       y2="-3064.5229"
       id="linearGradient14439"
       xlink:href="#linearGradient14079-7"
       gradientUnits="userSpaceOnUse" />
  </defs>
  <metadata
     id="metadata6430">
    <rdf:RDF>
      <cc:Work
         rdf:about="">
        <dc:format>image/svg+xml</dc:format>
        <dc:type
           rdf:resource="http://purl.org/dc/dcmitype/StillImage" />
        <dc:title></dc:title>
      </cc:Work>
    </rdf:RDF>
  </metadata>
  <g
     transform="translate(0,-452.36218)"
     id="layer1">
    <g
       transform="translate(-3165.9516,575.19975)"
       id="g14384">
      <g
         transform="matrix(0.7289881,0,0,0.7289881,-1486.2825,2381.1785)"
         id="g14339">
        <g
           id="g14341">
          <path
             d="m 6670.8438,-3113.4062 c -8.3718,0 -16.6599,0.5396 -24.1563,3.2812 -50.9709,18.6409 -45.4894,85.9724 -10,112.2188 -9.1198,-20.5388 -10.3543,-37.7072 2.2813,-53.7813 25.015,-31.1914 78.2412,-34.5206 116.9062,-1.3125 -12.2384,-35.1702 -45.6914,-60.4062 -85.0312,-60.4062 z"
             id="path14343"
             style="color:#000000;fill:url(#linearGradient14429);fill-opacity:1;fill-rule:nonzero;stroke:none;stroke-width:0.75;marker:none;visibility:visible;display:inline;overflow:visible;enable-background:accumulate" />
          <path
             d="m 6657.4088,-3078.4044 c -7.7763,3.1012 20.2038,-22.7135 -1.5289,-16.8714 -41.8636,11.2537 -44.4288,74.3052 -19.1924,97.3696 -8.6982,-17.6675 -10.3543,-37.7072 2.2813,-53.7813 25.015,-31.1914 78.2412,-34.5206 116.9062,-1.3125 -20.7237,-35.1702 -66.5511,-38.1323 -98.4662,-25.4044 z"
             id="path14345"
             style="color:#000000;fill:url(#linearGradient14431);fill-opacity:1;fill-rule:nonzero;stroke:none;stroke-width:0.75;marker:none;visibility:visible;display:inline;overflow:visible;enable-background:accumulate" />
        </g>
        <g
           transform="matrix(-0.5,-0.8660254,0.8660254,-0.5,12624.61,1242.0186)"
           id="g14347">
          <path
             d="m 6670.8438,-3113.4062 c -8.3718,0 -16.6599,0.5396 -24.1563,3.2812 -50.9709,18.6409 -45.4894,85.9724 -10,112.2188 -9.1198,-20.5388 -10.3543,-37.7072 2.2813,-53.7813 25.015,-31.1914 78.2412,-34.5206 116.9062,-1.3125 -12.2384,-35.1702 -45.6914,-60.4062 -85.0312,-60.4062 z"
             id="path14349"
             style="color:#000000;fill:url(#linearGradient14433);fill-opacity:1;fill-rule:nonzero;stroke:none;stroke-width:0.75;marker:none;visibility:visible;display:inline;overflow:visible;enable-background:accumulate" />
          <path
             d="m 6657.4088,-3078.4044 c -7.7763,3.1012 20.2038,-22.7135 -1.5289,-16.8714 -41.8636,11.2537 -44.4288,74.3052 -19.1924,97.3696 -8.6982,-17.6675 -10.3543,-37.7072 2.2813,-53.7813 25.015,-31.1914 78.2412,-34.5206 116.9062,-1.3125 -20.7237,-35.1702 -66.5511,-38.1323 -98.4662,-25.4044 z"
             id="path14351"
             style="color:#000000;fill:url(#linearGradient14435);fill-opacity:1;fill-rule:nonzero;stroke:none;stroke-width:0.75;marker:none;visibility:visible;display:inline;overflow:visible;enable-background:accumulate" />
        </g>
        <g
           transform="matrix(-0.5,0.8660254,-0.8660254,-0.5,7387.9247,-10312.223)"
           id="g14353">
          <path
             d="m 6670.8438,-3113.4062 c -8.3718,0 -16.6599,0.5396 -24.1563,3.2812 -50.9709,18.6409 -45.4894,85.9724 -10,112.2188 -9.1198,-20.5388 -10.3543,-37.7072 2.2813,-53.7813 25.015,-31.1914 78.2412,-34.5206 116.9062,-1.3125 -12.2384,-35.1702 -45.6914,-60.4062 -85.0312,-60.4062 z"
             id="path14355"
             style="color:#000000;fill:url(#linearGradient14437);fill-opacity:1;fill-rule:nonzero;stroke:none;stroke-width:0.75;marker:none;visibility:visible;display:inline;overflow:visible;enable-background:accumulate" />
          <path
             d="m 6657.4088,-3078.4044 c -7.7763,3.1012 20.2038,-22.7135 -1.5289,-16.8714 -41.8636,11.2537 -44.4288,74.3052 -19.1924,97.3696 -8.6982,-17.6675 -10.3543,-37.7072 2.2813,-53.7813 25.015,-31.1914 78.2412,-34.5206 116.9062,-1.3125 -20.7237,-35.1702 -66.5511,-38.1323 -98.4662,-25.4044 z"
             id="path14357"
             style="color:#000000;fill:url(#linearGradient14439);fill-opacity:1;fill-rule:nonzero;stroke:none;stroke-width:0.75;marker:none;visibility:visible;display:inline;overflow:visible;enable-background:accumulate" />
        </g>
      </g>
    </g>
  </g>
</svg>
